<mxfile host="app.diagrams.net" agent="Mozilla/5.0 (Macintosh; Intel Mac OS X 10_15_7) AppleWebKit/537.36 (KHTML, like Gecko) Chrome/139.0.0.0 Safari/537.36" version="28.1.2">
  <diagram name="PÃ¡gina-1" id="a3puCphpSHDFW-h_0bFc">
    <mxGraphModel dx="1502" dy="1544" grid="1" gridSize="10" guides="1" tooltips="1" connect="1" arrows="1" fold="1" page="1" pageScale="1" pageWidth="850" pageHeight="1100" math="0" shadow="0">
      <root>
        <mxCell id="0" />
        <mxCell id="1" parent="0" />
        <mxCell id="TgmMaa_afv3NTvwBBt2_-8" style="edgeStyle=orthogonalEdgeStyle;rounded=0;orthogonalLoop=1;jettySize=auto;html=1;exitX=0.5;exitY=1;exitDx=0;exitDy=0;entryX=0.5;entryY=0;entryDx=0;entryDy=0;" edge="1" parent="1" source="TgmMaa_afv3NTvwBBt2_-1" target="TgmMaa_afv3NTvwBBt2_-2">
          <mxGeometry relative="1" as="geometry" />
        </mxCell>
        <mxCell id="TgmMaa_afv3NTvwBBt2_-1" value="HTML" style="ellipse;whiteSpace=wrap;html=1;aspect=fixed;" vertex="1" parent="1">
          <mxGeometry x="385" y="30" width="80" height="80" as="geometry" />
        </mxCell>
        <mxCell id="TgmMaa_afv3NTvwBBt2_-2" value="-HEAD&lt;div&gt;&lt;br&gt;&lt;div&gt;-BODY&lt;/div&gt;&lt;/div&gt;" style="whiteSpace=wrap;html=1;aspect=fixed;" vertex="1" parent="1">
          <mxGeometry x="385" y="150" width="80" height="80" as="geometry" />
        </mxCell>
        <mxCell id="TgmMaa_afv3NTvwBBt2_-68" style="edgeStyle=orthogonalEdgeStyle;rounded=0;orthogonalLoop=1;jettySize=auto;html=1;entryX=1;entryY=0.75;entryDx=0;entryDy=0;" edge="1" parent="1" source="TgmMaa_afv3NTvwBBt2_-4" target="TgmMaa_afv3NTvwBBt2_-2">
          <mxGeometry relative="1" as="geometry" />
        </mxCell>
        <mxCell id="TgmMaa_afv3NTvwBBt2_-4" value="HEAD" style="swimlane;fontStyle=0;childLayout=stackLayout;horizontal=1;startSize=30;horizontalStack=0;resizeParent=1;resizeParentMax=0;resizeLast=0;collapsible=1;marginBottom=0;whiteSpace=wrap;html=1;" vertex="1" parent="1">
          <mxGeometry x="560" y="150" width="80" height="120" as="geometry" />
        </mxCell>
        <mxCell id="TgmMaa_afv3NTvwBBt2_-5" value="TITLE&lt;span style=&quot;white-space: pre;&quot;&gt;&#x9;&lt;/span&gt;" style="text;strokeColor=none;fillColor=none;align=left;verticalAlign=middle;spacingLeft=4;spacingRight=4;overflow=hidden;points=[[0,0.5],[1,0.5]];portConstraint=eastwest;rotatable=0;whiteSpace=wrap;html=1;" vertex="1" parent="TgmMaa_afv3NTvwBBt2_-4">
          <mxGeometry y="30" width="80" height="30" as="geometry" />
        </mxCell>
        <mxCell id="TgmMaa_afv3NTvwBBt2_-6" value="META" style="text;strokeColor=none;fillColor=none;align=left;verticalAlign=middle;spacingLeft=4;spacingRight=4;overflow=hidden;points=[[0,0.5],[1,0.5]];portConstraint=eastwest;rotatable=0;whiteSpace=wrap;html=1;" vertex="1" parent="TgmMaa_afv3NTvwBBt2_-4">
          <mxGeometry y="60" width="80" height="30" as="geometry" />
        </mxCell>
        <mxCell id="TgmMaa_afv3NTvwBBt2_-7" value="STYLE" style="text;strokeColor=none;fillColor=none;align=left;verticalAlign=middle;spacingLeft=4;spacingRight=4;overflow=hidden;points=[[0,0.5],[1,0.5]];portConstraint=eastwest;rotatable=0;whiteSpace=wrap;html=1;" vertex="1" parent="TgmMaa_afv3NTvwBBt2_-4">
          <mxGeometry y="90" width="80" height="30" as="geometry" />
        </mxCell>
        <mxCell id="TgmMaa_afv3NTvwBBt2_-67" style="edgeStyle=orthogonalEdgeStyle;rounded=0;orthogonalLoop=1;jettySize=auto;html=1;entryX=0;entryY=0.75;entryDx=0;entryDy=0;" edge="1" parent="1" source="TgmMaa_afv3NTvwBBt2_-22" target="TgmMaa_afv3NTvwBBt2_-2">
          <mxGeometry relative="1" as="geometry" />
        </mxCell>
        <mxCell id="TgmMaa_afv3NTvwBBt2_-22" value="BODY" style="swimlane;fontStyle=0;childLayout=stackLayout;horizontal=1;startSize=30;horizontalStack=0;resizeParent=1;resizeParentMax=0;resizeLast=0;collapsible=1;marginBottom=0;whiteSpace=wrap;html=1;" vertex="1" parent="1">
          <mxGeometry x="210" y="150" width="80" height="180" as="geometry" />
        </mxCell>
        <mxCell id="TgmMaa_afv3NTvwBBt2_-23" value="header" style="text;strokeColor=none;fillColor=none;align=left;verticalAlign=middle;spacingLeft=4;spacingRight=4;overflow=hidden;points=[[0,0.5],[1,0.5]];portConstraint=eastwest;rotatable=0;whiteSpace=wrap;html=1;" vertex="1" parent="TgmMaa_afv3NTvwBBt2_-22">
          <mxGeometry y="30" width="80" height="30" as="geometry" />
        </mxCell>
        <mxCell id="TgmMaa_afv3NTvwBBt2_-24" value="main" style="text;strokeColor=none;fillColor=none;align=left;verticalAlign=middle;spacingLeft=4;spacingRight=4;overflow=hidden;points=[[0,0.5],[1,0.5]];portConstraint=eastwest;rotatable=0;whiteSpace=wrap;html=1;" vertex="1" parent="TgmMaa_afv3NTvwBBt2_-22">
          <mxGeometry y="60" width="80" height="30" as="geometry" />
        </mxCell>
        <mxCell id="TgmMaa_afv3NTvwBBt2_-25" value="footer" style="text;strokeColor=none;fillColor=none;align=left;verticalAlign=middle;spacingLeft=4;spacingRight=4;overflow=hidden;points=[[0,0.5],[1,0.5]];portConstraint=eastwest;rotatable=0;whiteSpace=wrap;html=1;" vertex="1" parent="TgmMaa_afv3NTvwBBt2_-22">
          <mxGeometry y="90" width="80" height="30" as="geometry" />
        </mxCell>
        <mxCell id="TgmMaa_afv3NTvwBBt2_-27" value="sections" style="text;strokeColor=none;fillColor=none;align=left;verticalAlign=middle;spacingLeft=4;spacingRight=4;overflow=hidden;points=[[0,0.5],[1,0.5]];portConstraint=eastwest;rotatable=0;whiteSpace=wrap;html=1;" vertex="1" parent="TgmMaa_afv3NTvwBBt2_-22">
          <mxGeometry y="120" width="80" height="30" as="geometry" />
        </mxCell>
        <mxCell id="TgmMaa_afv3NTvwBBt2_-28" value="scripts" style="text;strokeColor=none;fillColor=none;align=left;verticalAlign=middle;spacingLeft=4;spacingRight=4;overflow=hidden;points=[[0,0.5],[1,0.5]];portConstraint=eastwest;rotatable=0;whiteSpace=wrap;html=1;" vertex="1" parent="TgmMaa_afv3NTvwBBt2_-22">
          <mxGeometry y="150" width="80" height="30" as="geometry" />
        </mxCell>
        <mxCell id="TgmMaa_afv3NTvwBBt2_-73" style="edgeStyle=orthogonalEdgeStyle;rounded=0;orthogonalLoop=1;jettySize=auto;html=1;entryX=0;entryY=0.5;entryDx=0;entryDy=0;exitX=0.5;exitY=0;exitDx=0;exitDy=0;" edge="1" parent="1" source="TgmMaa_afv3NTvwBBt2_-69" target="TgmMaa_afv3NTvwBBt2_-24">
          <mxGeometry relative="1" as="geometry" />
        </mxCell>
        <mxCell id="TgmMaa_afv3NTvwBBt2_-69" value="main" style="swimlane;fontStyle=0;childLayout=stackLayout;horizontal=1;startSize=30;horizontalStack=0;resizeParent=1;resizeParentMax=0;resizeLast=0;collapsible=1;marginBottom=0;whiteSpace=wrap;html=1;" vertex="1" parent="1">
          <mxGeometry x="-20" y="15" width="80" height="390" as="geometry" />
        </mxCell>
        <mxCell id="TgmMaa_afv3NTvwBBt2_-70" value="section" style="text;strokeColor=none;fillColor=none;align=left;verticalAlign=middle;spacingLeft=4;spacingRight=4;overflow=hidden;points=[[0,0.5],[1,0.5]];portConstraint=eastwest;rotatable=0;whiteSpace=wrap;html=1;" vertex="1" parent="TgmMaa_afv3NTvwBBt2_-69">
          <mxGeometry y="30" width="80" height="30" as="geometry" />
        </mxCell>
        <mxCell id="TgmMaa_afv3NTvwBBt2_-71" value="section" style="text;strokeColor=none;fillColor=none;align=left;verticalAlign=middle;spacingLeft=4;spacingRight=4;overflow=hidden;points=[[0,0.5],[1,0.5]];portConstraint=eastwest;rotatable=0;whiteSpace=wrap;html=1;" vertex="1" parent="TgmMaa_afv3NTvwBBt2_-69">
          <mxGeometry y="60" width="80" height="30" as="geometry" />
        </mxCell>
        <mxCell id="TgmMaa_afv3NTvwBBt2_-72" value="section" style="text;strokeColor=none;fillColor=none;align=left;verticalAlign=middle;spacingLeft=4;spacingRight=4;overflow=hidden;points=[[0,0.5],[1,0.5]];portConstraint=eastwest;rotatable=0;whiteSpace=wrap;html=1;" vertex="1" parent="TgmMaa_afv3NTvwBBt2_-69">
          <mxGeometry y="90" width="80" height="30" as="geometry" />
        </mxCell>
        <mxCell id="TgmMaa_afv3NTvwBBt2_-182" value="aside" style="text;strokeColor=none;fillColor=none;align=left;verticalAlign=middle;spacingLeft=4;spacingRight=4;overflow=hidden;points=[[0,0.5],[1,0.5]];portConstraint=eastwest;rotatable=0;whiteSpace=wrap;html=1;" vertex="1" parent="TgmMaa_afv3NTvwBBt2_-69">
          <mxGeometry y="120" width="80" height="30" as="geometry" />
        </mxCell>
        <mxCell id="TgmMaa_afv3NTvwBBt2_-183" value="footer" style="text;strokeColor=none;fillColor=none;align=left;verticalAlign=middle;spacingLeft=4;spacingRight=4;overflow=hidden;points=[[0,0.5],[1,0.5]];portConstraint=eastwest;rotatable=0;whiteSpace=wrap;html=1;" vertex="1" parent="TgmMaa_afv3NTvwBBt2_-69">
          <mxGeometry y="150" width="80" height="30" as="geometry" />
        </mxCell>
        <mxCell id="TgmMaa_afv3NTvwBBt2_-184" value="article" style="text;strokeColor=none;fillColor=none;align=left;verticalAlign=middle;spacingLeft=4;spacingRight=4;overflow=hidden;points=[[0,0.5],[1,0.5]];portConstraint=eastwest;rotatable=0;whiteSpace=wrap;html=1;" vertex="1" parent="TgmMaa_afv3NTvwBBt2_-69">
          <mxGeometry y="180" width="80" height="30" as="geometry" />
        </mxCell>
        <mxCell id="TgmMaa_afv3NTvwBBt2_-185" value="article" style="text;strokeColor=none;fillColor=none;align=left;verticalAlign=middle;spacingLeft=4;spacingRight=4;overflow=hidden;points=[[0,0.5],[1,0.5]];portConstraint=eastwest;rotatable=0;whiteSpace=wrap;html=1;" vertex="1" parent="TgmMaa_afv3NTvwBBt2_-69">
          <mxGeometry y="210" width="80" height="30" as="geometry" />
        </mxCell>
        <mxCell id="TgmMaa_afv3NTvwBBt2_-186" value="section" style="text;strokeColor=none;fillColor=none;align=left;verticalAlign=middle;spacingLeft=4;spacingRight=4;overflow=hidden;points=[[0,0.5],[1,0.5]];portConstraint=eastwest;rotatable=0;whiteSpace=wrap;html=1;" vertex="1" parent="TgmMaa_afv3NTvwBBt2_-69">
          <mxGeometry y="240" width="80" height="30" as="geometry" />
        </mxCell>
        <mxCell id="TgmMaa_afv3NTvwBBt2_-187" value="section" style="text;strokeColor=none;fillColor=none;align=left;verticalAlign=middle;spacingLeft=4;spacingRight=4;overflow=hidden;points=[[0,0.5],[1,0.5]];portConstraint=eastwest;rotatable=0;whiteSpace=wrap;html=1;" vertex="1" parent="TgmMaa_afv3NTvwBBt2_-69">
          <mxGeometry y="270" width="80" height="30" as="geometry" />
        </mxCell>
        <mxCell id="TgmMaa_afv3NTvwBBt2_-188" value="footer" style="text;strokeColor=none;fillColor=none;align=left;verticalAlign=middle;spacingLeft=4;spacingRight=4;overflow=hidden;points=[[0,0.5],[1,0.5]];portConstraint=eastwest;rotatable=0;whiteSpace=wrap;html=1;" vertex="1" parent="TgmMaa_afv3NTvwBBt2_-69">
          <mxGeometry y="300" width="80" height="30" as="geometry" />
        </mxCell>
        <mxCell id="TgmMaa_afv3NTvwBBt2_-189" value="section" style="text;strokeColor=none;fillColor=none;align=left;verticalAlign=middle;spacingLeft=4;spacingRight=4;overflow=hidden;points=[[0,0.5],[1,0.5]];portConstraint=eastwest;rotatable=0;whiteSpace=wrap;html=1;" vertex="1" parent="TgmMaa_afv3NTvwBBt2_-69">
          <mxGeometry y="330" width="80" height="30" as="geometry" />
        </mxCell>
        <mxCell id="TgmMaa_afv3NTvwBBt2_-190" value="script" style="text;strokeColor=none;fillColor=none;align=left;verticalAlign=middle;spacingLeft=4;spacingRight=4;overflow=hidden;points=[[0,0.5],[1,0.5]];portConstraint=eastwest;rotatable=0;whiteSpace=wrap;html=1;" vertex="1" parent="TgmMaa_afv3NTvwBBt2_-69">
          <mxGeometry y="360" width="80" height="30" as="geometry" />
        </mxCell>
        <mxCell id="TgmMaa_afv3NTvwBBt2_-104" style="edgeStyle=orthogonalEdgeStyle;rounded=0;orthogonalLoop=1;jettySize=auto;html=1;entryX=0;entryY=0.5;entryDx=0;entryDy=0;" edge="1" parent="1" source="TgmMaa_afv3NTvwBBt2_-98" target="TgmMaa_afv3NTvwBBt2_-70">
          <mxGeometry relative="1" as="geometry" />
        </mxCell>
        <mxCell id="TgmMaa_afv3NTvwBBt2_-98" value="section" style="swimlane;fontStyle=0;childLayout=stackLayout;horizontal=1;startSize=30;horizontalStack=0;resizeParent=1;resizeParentMax=0;resizeLast=0;collapsible=1;marginBottom=0;whiteSpace=wrap;html=1;" vertex="1" parent="1">
          <mxGeometry x="-190" y="310" width="70" height="150" as="geometry" />
        </mxCell>
        <mxCell id="TgmMaa_afv3NTvwBBt2_-99" value="h2" style="text;strokeColor=none;fillColor=none;align=left;verticalAlign=middle;spacingLeft=4;spacingRight=4;overflow=hidden;points=[[0,0.5],[1,0.5]];portConstraint=eastwest;rotatable=0;whiteSpace=wrap;html=1;" vertex="1" parent="TgmMaa_afv3NTvwBBt2_-98">
          <mxGeometry y="30" width="70" height="30" as="geometry" />
        </mxCell>
        <mxCell id="TgmMaa_afv3NTvwBBt2_-100" value="article" style="text;strokeColor=none;fillColor=none;align=left;verticalAlign=middle;spacingLeft=4;spacingRight=4;overflow=hidden;points=[[0,0.5],[1,0.5]];portConstraint=eastwest;rotatable=0;whiteSpace=wrap;html=1;" vertex="1" parent="TgmMaa_afv3NTvwBBt2_-98">
          <mxGeometry y="60" width="70" height="30" as="geometry" />
        </mxCell>
        <mxCell id="TgmMaa_afv3NTvwBBt2_-101" value="article" style="text;strokeColor=none;fillColor=none;align=left;verticalAlign=middle;spacingLeft=4;spacingRight=4;overflow=hidden;points=[[0,0.5],[1,0.5]];portConstraint=eastwest;rotatable=0;whiteSpace=wrap;html=1;" vertex="1" parent="TgmMaa_afv3NTvwBBt2_-98">
          <mxGeometry y="90" width="70" height="30" as="geometry" />
        </mxCell>
        <mxCell id="TgmMaa_afv3NTvwBBt2_-102" value="article" style="text;strokeColor=none;fillColor=none;align=left;verticalAlign=middle;spacingLeft=4;spacingRight=4;overflow=hidden;points=[[0,0.5],[1,0.5]];portConstraint=eastwest;rotatable=0;whiteSpace=wrap;html=1;" vertex="1" parent="TgmMaa_afv3NTvwBBt2_-98">
          <mxGeometry y="120" width="70" height="30" as="geometry" />
        </mxCell>
        <mxCell id="TgmMaa_afv3NTvwBBt2_-109" style="edgeStyle=orthogonalEdgeStyle;rounded=0;orthogonalLoop=1;jettySize=auto;html=1;entryX=1;entryY=0.5;entryDx=0;entryDy=0;" edge="1" parent="1" source="TgmMaa_afv3NTvwBBt2_-105" target="TgmMaa_afv3NTvwBBt2_-100">
          <mxGeometry relative="1" as="geometry" />
        </mxCell>
        <mxCell id="TgmMaa_afv3NTvwBBt2_-105" value="article" style="swimlane;fontStyle=0;childLayout=stackLayout;horizontal=1;startSize=30;horizontalStack=0;resizeParent=1;resizeParentMax=0;resizeLast=0;collapsible=1;marginBottom=0;whiteSpace=wrap;html=1;" vertex="1" parent="1">
          <mxGeometry x="-120" y="490" width="70" height="90" as="geometry" />
        </mxCell>
        <mxCell id="TgmMaa_afv3NTvwBBt2_-106" value="header" style="text;strokeColor=none;fillColor=none;align=left;verticalAlign=middle;spacingLeft=4;spacingRight=4;overflow=hidden;points=[[0,0.5],[1,0.5]];portConstraint=eastwest;rotatable=0;whiteSpace=wrap;html=1;" vertex="1" parent="TgmMaa_afv3NTvwBBt2_-105">
          <mxGeometry y="30" width="70" height="30" as="geometry" />
        </mxCell>
        <mxCell id="TgmMaa_afv3NTvwBBt2_-107" value="div" style="text;strokeColor=none;fillColor=none;align=left;verticalAlign=middle;spacingLeft=4;spacingRight=4;overflow=hidden;points=[[0,0.5],[1,0.5]];portConstraint=eastwest;rotatable=0;whiteSpace=wrap;html=1;" vertex="1" parent="TgmMaa_afv3NTvwBBt2_-105">
          <mxGeometry y="60" width="70" height="30" as="geometry" />
        </mxCell>
        <mxCell id="TgmMaa_afv3NTvwBBt2_-114" style="edgeStyle=orthogonalEdgeStyle;rounded=0;orthogonalLoop=1;jettySize=auto;html=1;entryX=0;entryY=0.5;entryDx=0;entryDy=0;" edge="1" parent="1" source="TgmMaa_afv3NTvwBBt2_-110" target="TgmMaa_afv3NTvwBBt2_-106">
          <mxGeometry relative="1" as="geometry" />
        </mxCell>
        <mxCell id="TgmMaa_afv3NTvwBBt2_-110" value="header" style="swimlane;fontStyle=0;childLayout=stackLayout;horizontal=1;startSize=30;horizontalStack=0;resizeParent=1;resizeParentMax=0;resizeLast=0;collapsible=1;marginBottom=0;whiteSpace=wrap;html=1;" vertex="1" parent="1">
          <mxGeometry x="-200" y="570" width="50" height="90" as="geometry" />
        </mxCell>
        <mxCell id="TgmMaa_afv3NTvwBBt2_-111" value="h3" style="text;strokeColor=none;fillColor=none;align=left;verticalAlign=middle;spacingLeft=4;spacingRight=4;overflow=hidden;points=[[0,0.5],[1,0.5]];portConstraint=eastwest;rotatable=0;whiteSpace=wrap;html=1;" vertex="1" parent="TgmMaa_afv3NTvwBBt2_-110">
          <mxGeometry y="30" width="50" height="30" as="geometry" />
        </mxCell>
        <mxCell id="TgmMaa_afv3NTvwBBt2_-112" value="p" style="text;strokeColor=none;fillColor=none;align=left;verticalAlign=middle;spacingLeft=4;spacingRight=4;overflow=hidden;points=[[0,0.5],[1,0.5]];portConstraint=eastwest;rotatable=0;whiteSpace=wrap;html=1;" vertex="1" parent="TgmMaa_afv3NTvwBBt2_-110">
          <mxGeometry y="60" width="50" height="30" as="geometry" />
        </mxCell>
        <mxCell id="TgmMaa_afv3NTvwBBt2_-119" style="edgeStyle=orthogonalEdgeStyle;rounded=0;orthogonalLoop=1;jettySize=auto;html=1;entryX=1;entryY=0.5;entryDx=0;entryDy=0;" edge="1" parent="1" source="TgmMaa_afv3NTvwBBt2_-115" target="TgmMaa_afv3NTvwBBt2_-107">
          <mxGeometry relative="1" as="geometry" />
        </mxCell>
        <mxCell id="TgmMaa_afv3NTvwBBt2_-115" value="div" style="swimlane;fontStyle=0;childLayout=stackLayout;horizontal=1;startSize=30;horizontalStack=0;resizeParent=1;resizeParentMax=0;resizeLast=0;collapsible=1;marginBottom=0;whiteSpace=wrap;html=1;" vertex="1" parent="1">
          <mxGeometry x="-110" y="680" width="70" height="60" as="geometry" />
        </mxCell>
        <mxCell id="TgmMaa_afv3NTvwBBt2_-116" value="section" style="text;strokeColor=none;fillColor=none;align=left;verticalAlign=middle;spacingLeft=4;spacingRight=4;overflow=hidden;points=[[0,0.5],[1,0.5]];portConstraint=eastwest;rotatable=0;whiteSpace=wrap;html=1;" vertex="1" parent="TgmMaa_afv3NTvwBBt2_-115">
          <mxGeometry y="30" width="70" height="30" as="geometry" />
        </mxCell>
        <mxCell id="TgmMaa_afv3NTvwBBt2_-124" style="edgeStyle=orthogonalEdgeStyle;rounded=0;orthogonalLoop=1;jettySize=auto;html=1;entryX=0;entryY=0.5;entryDx=0;entryDy=0;" edge="1" parent="1" source="TgmMaa_afv3NTvwBBt2_-120" target="TgmMaa_afv3NTvwBBt2_-116">
          <mxGeometry relative="1" as="geometry" />
        </mxCell>
        <mxCell id="TgmMaa_afv3NTvwBBt2_-120" value="section" style="swimlane;fontStyle=0;childLayout=stackLayout;horizontal=1;startSize=30;horizontalStack=0;resizeParent=1;resizeParentMax=0;resizeLast=0;collapsible=1;marginBottom=0;whiteSpace=wrap;html=1;" vertex="1" parent="1">
          <mxGeometry x="-195" y="770" width="75" height="90" as="geometry" />
        </mxCell>
        <mxCell id="TgmMaa_afv3NTvwBBt2_-121" value="h4" style="text;strokeColor=none;fillColor=none;align=left;verticalAlign=middle;spacingLeft=4;spacingRight=4;overflow=hidden;points=[[0,0.5],[1,0.5]];portConstraint=eastwest;rotatable=0;whiteSpace=wrap;html=1;" vertex="1" parent="TgmMaa_afv3NTvwBBt2_-120">
          <mxGeometry y="30" width="75" height="30" as="geometry" />
        </mxCell>
        <mxCell id="TgmMaa_afv3NTvwBBt2_-122" value="ul" style="text;strokeColor=none;fillColor=none;align=left;verticalAlign=middle;spacingLeft=4;spacingRight=4;overflow=hidden;points=[[0,0.5],[1,0.5]];portConstraint=eastwest;rotatable=0;whiteSpace=wrap;html=1;" vertex="1" parent="TgmMaa_afv3NTvwBBt2_-120">
          <mxGeometry y="60" width="75" height="30" as="geometry" />
        </mxCell>
        <mxCell id="TgmMaa_afv3NTvwBBt2_-125" value="ul" style="swimlane;fontStyle=0;childLayout=stackLayout;horizontal=1;startSize=30;horizontalStack=0;resizeParent=1;resizeParentMax=0;resizeLast=0;collapsible=1;marginBottom=0;whiteSpace=wrap;html=1;" vertex="1" parent="1">
          <mxGeometry x="-80" y="870" width="40" height="60" as="geometry" />
        </mxCell>
        <mxCell id="TgmMaa_afv3NTvwBBt2_-126" value="li" style="text;strokeColor=none;fillColor=none;align=left;verticalAlign=middle;spacingLeft=4;spacingRight=4;overflow=hidden;points=[[0,0.5],[1,0.5]];portConstraint=eastwest;rotatable=0;whiteSpace=wrap;html=1;" vertex="1" parent="TgmMaa_afv3NTvwBBt2_-125">
          <mxGeometry y="30" width="40" height="30" as="geometry" />
        </mxCell>
        <mxCell id="TgmMaa_afv3NTvwBBt2_-129" style="edgeStyle=orthogonalEdgeStyle;rounded=0;orthogonalLoop=1;jettySize=auto;html=1;entryX=1.057;entryY=0.233;entryDx=0;entryDy=0;entryPerimeter=0;" edge="1" parent="1" source="TgmMaa_afv3NTvwBBt2_-125" target="TgmMaa_afv3NTvwBBt2_-122">
          <mxGeometry relative="1" as="geometry" />
        </mxCell>
        <mxCell id="TgmMaa_afv3NTvwBBt2_-134" style="edgeStyle=orthogonalEdgeStyle;rounded=0;orthogonalLoop=1;jettySize=auto;html=1;entryX=0;entryY=0.5;entryDx=0;entryDy=0;" edge="1" parent="1" target="TgmMaa_afv3NTvwBBt2_-71">
          <mxGeometry relative="1" as="geometry">
            <mxPoint x="-320.00000000000006" y="310" as="sourcePoint" />
            <mxPoint x="-30.04" y="90" as="targetPoint" />
            <Array as="points">
              <mxPoint x="-320" y="240" />
              <mxPoint x="-190" y="240" />
              <mxPoint x="-190" y="90" />
            </Array>
          </mxGeometry>
        </mxCell>
        <mxCell id="TgmMaa_afv3NTvwBBt2_-130" value="section" style="swimlane;fontStyle=0;childLayout=stackLayout;horizontal=1;startSize=30;horizontalStack=0;resizeParent=1;resizeParentMax=0;resizeLast=0;collapsible=1;marginBottom=0;whiteSpace=wrap;html=1;" vertex="1" parent="1">
          <mxGeometry x="-340" y="310" width="70" height="90" as="geometry" />
        </mxCell>
        <mxCell id="TgmMaa_afv3NTvwBBt2_-131" value="h4" style="text;strokeColor=none;fillColor=none;align=left;verticalAlign=middle;spacingLeft=4;spacingRight=4;overflow=hidden;points=[[0,0.5],[1,0.5]];portConstraint=eastwest;rotatable=0;whiteSpace=wrap;html=1;" vertex="1" parent="TgmMaa_afv3NTvwBBt2_-130">
          <mxGeometry y="30" width="70" height="30" as="geometry" />
        </mxCell>
        <mxCell id="TgmMaa_afv3NTvwBBt2_-132" value="ul" style="text;strokeColor=none;fillColor=none;align=left;verticalAlign=middle;spacingLeft=4;spacingRight=4;overflow=hidden;points=[[0,0.5],[1,0.5]];portConstraint=eastwest;rotatable=0;whiteSpace=wrap;html=1;" vertex="1" parent="TgmMaa_afv3NTvwBBt2_-130">
          <mxGeometry y="60" width="70" height="30" as="geometry" />
        </mxCell>
        <mxCell id="TgmMaa_afv3NTvwBBt2_-139" style="edgeStyle=orthogonalEdgeStyle;rounded=0;orthogonalLoop=1;jettySize=auto;html=1;entryX=0;entryY=0.5;entryDx=0;entryDy=0;" edge="1" parent="1" source="TgmMaa_afv3NTvwBBt2_-135" target="TgmMaa_afv3NTvwBBt2_-132">
          <mxGeometry relative="1" as="geometry" />
        </mxCell>
        <mxCell id="TgmMaa_afv3NTvwBBt2_-135" value="ul" style="swimlane;fontStyle=0;childLayout=stackLayout;horizontal=1;startSize=20;horizontalStack=0;resizeParent=1;resizeParentMax=0;resizeLast=0;collapsible=1;marginBottom=0;whiteSpace=wrap;html=1;" vertex="1" parent="1">
          <mxGeometry x="-440" y="440" width="60" height="50" as="geometry" />
        </mxCell>
        <mxCell id="TgmMaa_afv3NTvwBBt2_-136" value="li" style="text;strokeColor=none;fillColor=none;align=left;verticalAlign=middle;spacingLeft=4;spacingRight=4;overflow=hidden;points=[[0,0.5],[1,0.5]];portConstraint=eastwest;rotatable=0;whiteSpace=wrap;html=1;" vertex="1" parent="TgmMaa_afv3NTvwBBt2_-135">
          <mxGeometry y="20" width="60" height="30" as="geometry" />
        </mxCell>
        <mxCell id="TgmMaa_afv3NTvwBBt2_-140" style="edgeStyle=orthogonalEdgeStyle;rounded=0;orthogonalLoop=1;jettySize=auto;html=1;entryX=1;entryY=0.5;entryDx=0;entryDy=0;" edge="1" parent="1" source="TgmMaa_afv3NTvwBBt2_-136" target="TgmMaa_afv3NTvwBBt2_-132">
          <mxGeometry relative="1" as="geometry" />
        </mxCell>
        <mxCell id="TgmMaa_afv3NTvwBBt2_-145" style="edgeStyle=orthogonalEdgeStyle;rounded=0;orthogonalLoop=1;jettySize=auto;html=1;entryX=1;entryY=0.5;entryDx=0;entryDy=0;" edge="1" parent="1" source="TgmMaa_afv3NTvwBBt2_-141" target="TgmMaa_afv3NTvwBBt2_-72">
          <mxGeometry relative="1" as="geometry" />
        </mxCell>
        <mxCell id="TgmMaa_afv3NTvwBBt2_-141" value="section" style="swimlane;fontStyle=0;childLayout=stackLayout;horizontal=1;startSize=30;horizontalStack=0;resizeParent=1;resizeParentMax=0;resizeLast=0;collapsible=1;marginBottom=0;whiteSpace=wrap;html=1;" vertex="1" parent="1">
          <mxGeometry x="20" y="960" width="70" height="90" as="geometry" />
        </mxCell>
        <mxCell id="TgmMaa_afv3NTvwBBt2_-142" value="h4" style="text;strokeColor=none;fillColor=none;align=left;verticalAlign=middle;spacingLeft=4;spacingRight=4;overflow=hidden;points=[[0,0.5],[1,0.5]];portConstraint=eastwest;rotatable=0;whiteSpace=wrap;html=1;" vertex="1" parent="TgmMaa_afv3NTvwBBt2_-141">
          <mxGeometry y="30" width="70" height="30" as="geometry" />
        </mxCell>
        <mxCell id="TgmMaa_afv3NTvwBBt2_-143" value="table" style="text;strokeColor=none;fillColor=none;align=left;verticalAlign=middle;spacingLeft=4;spacingRight=4;overflow=hidden;points=[[0,0.5],[1,0.5]];portConstraint=eastwest;rotatable=0;whiteSpace=wrap;html=1;" vertex="1" parent="TgmMaa_afv3NTvwBBt2_-141">
          <mxGeometry y="60" width="70" height="30" as="geometry" />
        </mxCell>
        <mxCell id="TgmMaa_afv3NTvwBBt2_-150" style="edgeStyle=orthogonalEdgeStyle;rounded=0;orthogonalLoop=1;jettySize=auto;html=1;exitX=0;exitY=0.25;exitDx=0;exitDy=0;entryX=1;entryY=0.5;entryDx=0;entryDy=0;" edge="1" parent="1" source="TgmMaa_afv3NTvwBBt2_-146" target="TgmMaa_afv3NTvwBBt2_-143">
          <mxGeometry relative="1" as="geometry" />
        </mxCell>
        <mxCell id="TgmMaa_afv3NTvwBBt2_-146" value="table" style="swimlane;fontStyle=0;childLayout=stackLayout;horizontal=1;startSize=30;horizontalStack=0;resizeParent=1;resizeParentMax=0;resizeLast=0;collapsible=1;marginBottom=0;whiteSpace=wrap;html=1;" vertex="1" parent="1">
          <mxGeometry x="160" y="1020" width="80" height="90" as="geometry" />
        </mxCell>
        <mxCell id="TgmMaa_afv3NTvwBBt2_-147" value="caption" style="text;strokeColor=none;fillColor=none;align=left;verticalAlign=middle;spacingLeft=4;spacingRight=4;overflow=hidden;points=[[0,0.5],[1,0.5]];portConstraint=eastwest;rotatable=0;whiteSpace=wrap;html=1;" vertex="1" parent="TgmMaa_afv3NTvwBBt2_-146">
          <mxGeometry y="30" width="80" height="30" as="geometry" />
        </mxCell>
        <mxCell id="TgmMaa_afv3NTvwBBt2_-153" value="thead" style="text;strokeColor=none;fillColor=none;align=left;verticalAlign=middle;spacingLeft=4;spacingRight=4;overflow=hidden;points=[[0,0.5],[1,0.5]];portConstraint=eastwest;rotatable=0;whiteSpace=wrap;html=1;" vertex="1" parent="TgmMaa_afv3NTvwBBt2_-146">
          <mxGeometry y="60" width="80" height="30" as="geometry" />
        </mxCell>
        <mxCell id="TgmMaa_afv3NTvwBBt2_-158" style="edgeStyle=orthogonalEdgeStyle;rounded=0;orthogonalLoop=1;jettySize=auto;html=1;entryX=1;entryY=0.5;entryDx=0;entryDy=0;" edge="1" parent="1" source="TgmMaa_afv3NTvwBBt2_-154" target="TgmMaa_afv3NTvwBBt2_-153">
          <mxGeometry relative="1" as="geometry">
            <Array as="points">
              <mxPoint x="340" y="1080" />
              <mxPoint x="273" y="1080" />
              <mxPoint x="273" y="1095" />
            </Array>
          </mxGeometry>
        </mxCell>
        <mxCell id="TgmMaa_afv3NTvwBBt2_-154" value="thead" style="swimlane;fontStyle=0;childLayout=stackLayout;horizontal=1;startSize=30;horizontalStack=0;resizeParent=1;resizeParentMax=0;resizeLast=0;collapsible=1;marginBottom=0;whiteSpace=wrap;html=1;" vertex="1" parent="1">
          <mxGeometry x="305" y="1100" width="70" height="150" as="geometry" />
        </mxCell>
        <mxCell id="TgmMaa_afv3NTvwBBt2_-155" value="tr" style="text;strokeColor=none;fillColor=none;align=left;verticalAlign=middle;spacingLeft=4;spacingRight=4;overflow=hidden;points=[[0,0.5],[1,0.5]];portConstraint=eastwest;rotatable=0;whiteSpace=wrap;html=1;" vertex="1" parent="TgmMaa_afv3NTvwBBt2_-154">
          <mxGeometry y="30" width="70" height="30" as="geometry" />
        </mxCell>
        <mxCell id="TgmMaa_afv3NTvwBBt2_-164" value="tr" style="text;strokeColor=none;fillColor=none;align=left;verticalAlign=middle;spacingLeft=4;spacingRight=4;overflow=hidden;points=[[0,0.5],[1,0.5]];portConstraint=eastwest;rotatable=0;whiteSpace=wrap;html=1;" vertex="1" parent="TgmMaa_afv3NTvwBBt2_-154">
          <mxGeometry y="60" width="70" height="30" as="geometry" />
        </mxCell>
        <mxCell id="TgmMaa_afv3NTvwBBt2_-165" value="tr" style="text;strokeColor=none;fillColor=none;align=left;verticalAlign=middle;spacingLeft=4;spacingRight=4;overflow=hidden;points=[[0,0.5],[1,0.5]];portConstraint=eastwest;rotatable=0;whiteSpace=wrap;html=1;" vertex="1" parent="TgmMaa_afv3NTvwBBt2_-154">
          <mxGeometry y="90" width="70" height="30" as="geometry" />
        </mxCell>
        <mxCell id="TgmMaa_afv3NTvwBBt2_-168" value="tr" style="text;strokeColor=none;fillColor=none;align=left;verticalAlign=middle;spacingLeft=4;spacingRight=4;overflow=hidden;points=[[0,0.5],[1,0.5]];portConstraint=eastwest;rotatable=0;whiteSpace=wrap;html=1;" vertex="1" parent="TgmMaa_afv3NTvwBBt2_-154">
          <mxGeometry y="120" width="70" height="30" as="geometry" />
        </mxCell>
        <mxCell id="TgmMaa_afv3NTvwBBt2_-163" style="edgeStyle=orthogonalEdgeStyle;rounded=0;orthogonalLoop=1;jettySize=auto;html=1;entryX=1;entryY=0.5;entryDx=0;entryDy=0;" edge="1" parent="1" source="TgmMaa_afv3NTvwBBt2_-159" target="TgmMaa_afv3NTvwBBt2_-155">
          <mxGeometry relative="1" as="geometry" />
        </mxCell>
        <mxCell id="TgmMaa_afv3NTvwBBt2_-159" value="tr" style="swimlane;fontStyle=0;childLayout=stackLayout;horizontal=1;startSize=30;horizontalStack=0;resizeParent=1;resizeParentMax=0;resizeLast=0;collapsible=1;marginBottom=0;whiteSpace=wrap;html=1;" vertex="1" parent="1">
          <mxGeometry x="485" y="1100" width="45" height="60" as="geometry" />
        </mxCell>
        <mxCell id="TgmMaa_afv3NTvwBBt2_-160" value="th" style="text;strokeColor=none;fillColor=none;align=left;verticalAlign=middle;spacingLeft=4;spacingRight=4;overflow=hidden;points=[[0,0.5],[1,0.5]];portConstraint=eastwest;rotatable=0;whiteSpace=wrap;html=1;" vertex="1" parent="TgmMaa_afv3NTvwBBt2_-159">
          <mxGeometry y="30" width="45" height="30" as="geometry" />
        </mxCell>
        <mxCell id="TgmMaa_afv3NTvwBBt2_-175" style="edgeStyle=orthogonalEdgeStyle;rounded=0;orthogonalLoop=1;jettySize=auto;html=1;exitX=0.5;exitY=0;exitDx=0;exitDy=0;entryX=1.017;entryY=0.26;entryDx=0;entryDy=0;entryPerimeter=0;" edge="1" parent="1" source="TgmMaa_afv3NTvwBBt2_-178" target="TgmMaa_afv3NTvwBBt2_-164">
          <mxGeometry relative="1" as="geometry">
            <mxPoint x="485" y="1195" as="sourcePoint" />
            <Array as="points">
              <mxPoint x="507" y="1195" />
              <mxPoint x="510" y="1195" />
              <mxPoint x="510" y="1168" />
            </Array>
          </mxGeometry>
        </mxCell>
        <mxCell id="TgmMaa_afv3NTvwBBt2_-180" style="edgeStyle=orthogonalEdgeStyle;rounded=0;orthogonalLoop=1;jettySize=auto;html=1;exitX=0;exitY=0;exitDx=0;exitDy=0;entryX=1;entryY=0.5;entryDx=0;entryDy=0;" edge="1" parent="1" source="TgmMaa_afv3NTvwBBt2_-178" target="TgmMaa_afv3NTvwBBt2_-165">
          <mxGeometry relative="1" as="geometry" />
        </mxCell>
        <mxCell id="TgmMaa_afv3NTvwBBt2_-181" style="edgeStyle=orthogonalEdgeStyle;rounded=0;orthogonalLoop=1;jettySize=auto;html=1;exitX=0.25;exitY=0;exitDx=0;exitDy=0;entryX=1;entryY=0.5;entryDx=0;entryDy=0;" edge="1" parent="1" source="TgmMaa_afv3NTvwBBt2_-178" target="TgmMaa_afv3NTvwBBt2_-168">
          <mxGeometry relative="1" as="geometry" />
        </mxCell>
        <mxCell id="TgmMaa_afv3NTvwBBt2_-178" value="tr" style="swimlane;fontStyle=0;childLayout=stackLayout;horizontal=1;startSize=30;horizontalStack=0;resizeParent=1;resizeParentMax=0;resizeLast=0;collapsible=1;marginBottom=0;whiteSpace=wrap;html=1;" vertex="1" parent="1">
          <mxGeometry x="485" y="1200" width="45" height="60" as="geometry" />
        </mxCell>
        <mxCell id="TgmMaa_afv3NTvwBBt2_-179" value="td" style="text;strokeColor=none;fillColor=none;align=left;verticalAlign=middle;spacingLeft=4;spacingRight=4;overflow=hidden;points=[[0,0.5],[1,0.5]];portConstraint=eastwest;rotatable=0;whiteSpace=wrap;html=1;" vertex="1" parent="TgmMaa_afv3NTvwBBt2_-178">
          <mxGeometry y="30" width="45" height="30" as="geometry" />
        </mxCell>
      </root>
    </mxGraphModel>
  </diagram>
</mxfile>
